<svg width="40" height="40" viewBox="0 0 40 40" fill="none" xmlns="http://www.w3.org/2000/svg">
<path d="M15.9947 24.9843C13.7456 21.1555 13.7403 17.175 13.9689 15.3229C8.6998 17.8303 5.54683 23.2134 7.66831 28.0387C10.1673 28.2878 13.6712 27.5296 15.9947 24.9843Z" fill="#415167"/>
<path d="M16.5743 25.9104C14.5219 28.0874 10.9968 29.3167 8.3064 29.1543C10.7628 32.7015 17.2974 34.2612 23.1833 30.8385C20.663 30.2266 18.2864 28.4394 16.5743 25.9104Z" fill="#415167"/>
<path d="M22.7313 17.9603C19.2115 14.0611 18.919 10.3406 19.4029 7.89817C15.7661 9.98317 13.9902 15.3283 15.4152 20.7764C17.0049 27.0043 22.6569 31.7158 27.9579 29.3438C28.1227 27.5946 27.9047 23.6683 22.7313 17.9603Z" fill="#415167"/>
<path d="M32.5251 16.1894C30.9088 9.98317 25.512 5.69404 20.5992 7.3512C19.8814 9.68531 19.9824 13.4383 23.5341 17.2617C25.1452 19.1571 29.1276 23.6466 29.0531 28.7319C32.3178 26.4357 33.8437 21.3667 32.5251 16.1894Z" fill="#415167"/>
</svg>
